<?xml version="1.0" encoding="UTF-8"?>
<!DOCTYPE svg PUBLIC "-//W3C//DTD SVG 1.0//EN" "http://www.w3.org/TR/2001/REC-SVG-20010904/DTD/svg10.dtd">
<!-- Creator: CorelDRAW -->
<svg xmlns="http://www.w3.org/2000/svg" xml:space="preserve" width="2.47891in" height="2.53064in" version="1.0" style="shape-rendering:geometricPrecision; text-rendering:geometricPrecision; image-rendering:optimizeQuality; fill-rule:evenodd; clip-rule:evenodd"
viewBox="0 0 513.02 523.73"
 xmlns:xlink="http://www.w3.org/1999/xlink"
 xmlns:xodm="http://www.corel.com/coreldraw/odm/2003">
 <defs>
  <style type="text/css">
   <![CDATA[
    .str0 {stroke:black;stroke-width:2.16;stroke-linecap:round;stroke-linejoin:round;stroke-miterlimit:2.61313}
    .fil4 {fill:none;fill-rule:nonzero}
    .fil0 {fill:black;fill-rule:nonzero}
    .fil6 {fill:#435973;fill-rule:nonzero}
    .fil2 {fill:#516F85;fill-rule:nonzero}
    .fil7 {fill:#628096;fill-rule:nonzero}
    .fil5 {fill:#81ACB3;fill-rule:nonzero}
    .fil1 {fill:#9C5851;fill-rule:nonzero}
    .fil3 {fill:white;fill-rule:nonzero}
   ]]>
  </style>
 </defs>
 <g id="Layer_x0020_1">
  <metadata id="CorelCorpID_0Corel-Layer"/>
  <g>
   <path class="fil0" d="M178.04 109.23c3.72,13.32 -31.73,59.02 -27.84,105.84 -0.3,11.19 3.28,22.7 10.94,30.87 -0.68,-6.95 0.64,-14.07 3.75,-20.32 0.57,16.42 14.93,28.97 29.53,36.51 19.57,10.1 41.31,15.05 62.78,19.91l-79.16 -172.8zm0 0l0 0 0 0z"/>
  </g>
  <g>
   <path class="fil0" d="M334.21 103.13c2.98,24.54 11.24,48.42 24.05,69.55 4.46,7.35 9.5,14.46 12.46,22.53 4.41,12.03 3.86,25.23 3.26,38.03 -2.27,-8.99 -6.31,-17.52 -11.82,-24.97 3.83,18.06 -4.86,37.19 -18.68,49.42 -13.83,12.23 -32.04,18.43 -50.23,21.58 -2.02,0.35 -5.04,-0.24 -4.7,-2.26l45.66 -173.87zm0 0l0 0 0 0z"/>
  </g>
  <path class="fil1" d="M110.16 522.65l11.03 -35.96 -77.65 -30.54c0,0 -29.33,19.05 -32.77,66.5l99.39 0 0 0z"/>
  <path class="fil1" d="M412.7 501.74l7.17 20.91 93.16 0c0,0 -11.95,-38.86 0,0 -15.05,-55.62 -23.76,-64.1 -23.76,-64.1l-76.56 43.19z"/>
  <g>
   <path class="fil2" d="M319.12 79.67l9.01 25.77c0,0 12.58,4.01 16.83,1.72 4.25,-2.29 3.93,-6.54 3.93,-6.54 0,0 -3.27,-19.96 -12.76,-24.21 -9.49,-4.25 -22.25,-6.54 -22.25,-6.54l5.24 9.82zm0 0l0 0 0 0z"/>
  </g>
  <path class="fil1" d="M384.07 306.08c0,0 -49.73,55.83 -131.76,55.83 -82.01,0 -154.43,-51.46 -113.42,-65.44 41.02,-13.95 65.44,-40.13 65.44,-40.13l0 -52.35 101.61 -7.25 8.32 -0.6c0,0 -3.77,37.77 -2.43,57.72 0.37,5.42 1.13,9.53 2.43,11.2 6.1,7.85 69.81,41.02 69.81,41.02z"/>
  <path class="fil0" d="M312.48 251.25c-58.21,-2.93 -89.36,-32.9 -91.14,-33.5l85.25 -23.61 8.32 -0.6c0,0 -3.77,37.77 -2.43,57.72z"/>
  <path class="fil1" d="M186 99.3c-20.83,100.12 35.34,128.26 74.16,128.26 38.82,0 74.81,-31.08 65.44,-109.93 0,-69.8 -35.77,-85.51 -75.91,-85.51 -40.13,0 -61.95,35.77 -63.69,67.18z"/>
  <path class="fil1" d="M198.32 176.96c0,0 -30.21,-10.47 -30.54,-38.39 -0.33,-27.92 24.43,-24.43 25.3,-4.36 0.87,20.07 5.23,42.75 5.23,42.75z"/>
  <path class="fil1" d="M316.41 173.03c0,0 23.56,-6.39 30.54,-35.17 6.98,-28.78 -24.43,-22.38 -25.3,-4 -0.87,18.38 -5.24,39.17 -5.24,39.17z"/>
  <path class="fil3" d="M239.54 133.02c-2.07,4.45 -8.98,6.33 -16.18,6.26 -1.6,-0.03 -3.22,-0.13 -4.79,-0.34l-0.03 -0c-7.43,-0.94 -14.11,-3.87 -14.76,-7.98 0,0 3.22,-2.62 8.38,-4.29 1.31,-0.44 2.72,-0.81 4.27,-1.05 0,0 0,0 0,-0.03 4.21,-0.68 9.21,-0.47 14.5,1.86 0.16,0.08 0.31,0.13 0.47,0.21 2.64,1.2 5.39,2.96 8.14,5.36z"/>
  <path class="fil4 str0" d="M203.8 130.95c0,0 15.36,-15.26 35.75,2.07"/>
  <path class="fil3" d="M311.79 131.16c-0.5,3.01 -6.6,6.36 -14,7.8 -2.01,0.39 -4.14,0.63 -6.26,0.68 0,0 -0.03,0 -0.05,0 -6.65,0.18 -13.35,-1.47 -17.43,-6.31 3.06,-2.7 6.12,-4.61 9.08,-5.86 0.34,-0.16 0.68,-0.29 1.02,-0.42 5.18,-2.07 10.1,-2.23 14.29,-1.54 0,0.03 0,0.03 0,0.03 1.65,0.26 3.17,0.65 4.55,1.13 5.42,1.75 8.79,4.5 8.79,4.5z"/>
  <path class="fil4 str0" d="M311.78 131.16c0,0 -16.22,-16.11 -37.75,2.18"/>
  <path class="fil3" d="M178.43 278.6c0,0 43.19,37.95 90.96,35.99 47.77,-1.96 70.02,-33.37 70.02,-33.37l58.89 31.41c0,0 -48.42,66.09 -121.06,70.67 -72.64,4.58 -133.49,-37.3 -144.62,-45.81 -11.12,-8.51 -13.09,-32.06 -13.09,-32.06l58.89 -26.83z"/>
  <path class="fil5" d="M330.25 290.38l124.33 47.11 -45.47 185.16 -303.45 0 -38.46 -190.39c0,0 100.77,-41.88 107.32,-47.11l36.64 9.16 17.01 20.94 32.06 51.69 39.92 -54.31 30.1 -22.25z"/>
  <path class="fil0" d="M175.87 112.61l0.6 6c0,0 5.24,-1.96 7.85,3.6 2.62,5.56 5.56,12.11 5.56,12.11 0,0 6.87,-11.45 6.87,-21.92 0,-10.47 -0.33,-27.16 -0.33,-27.16l-20.56 27.38z"/>
  <g>
   <path class="fil0" d="M225.55 78.35c10.02,18.99 28.42,33.35 49.27,38.48 2.78,0.68 5.71,1.21 8.48,0.52 -3.25,-4.67 -6.5,-9.33 -9.75,-14 -0.97,-1.4 -1.98,-2.89 -2.1,-4.59 14.84,17.12 39.88,24.62 61.69,18.49 0.53,-0.15 1.09,-0.32 1.45,-0.73 0.44,-0.5 0.5,-1.22 0.53,-1.88 0.18,-3.98 0.14,-7.98 -0.12,-11.96 -0.8,-12.09 -4.1,-24.82 -13.13,-32.9 -4.83,-4.32 -10.93,-6.97 -17.12,-8.9 -24.66,-7.7 -51.33,-4.89 -76.68,0.07l-2.53 17.42zm0 0l0 0 0 0z"/>
  </g>
  <path class="fil6" d="M203.97 95.12l-0.97 0.6 -27.13 16.89c0,0 -3.81,-15 -4.15,-20.2 -0.35,-5.2 3.84,-11.39 2.97,-17.8 -0.87,-6.4 1.06,-56.7 49.81,-70.26 48.75,-13.56 75.16,7.05 89.4,28.74 14.24,21.69 13.6,36.87 13.6,36.87 0,0 -29.82,-10.89 -53.89,-5.1 -24.07,5.79 -50,25.97 -50,25.97l-19.64 4.29z"/>
  <path class="fil7" d="M194.37 98.27c0,0 12.94,10.89 39.94,-5.57 27.01,-16.46 41.05,-34.31 74.57,-25.81 33.52,8.5 40.38,30.22 37.68,37.15 -2.71,6.93 -12.42,1.13 -18.43,1.39 -6.01,0.26 3.24,2.72 7.9,3.55 4.67,0.83 16.47,-0.7 14.02,-10.72 -2.45,-10.02 -8.9,-31.04 -33.63,-34.34 -37.55,-7.82 -56.78,-2.63 -56.78,-2.63 0,0 -42.02,5.75 -65.27,36.96z"/>
  <g>
   <path class="fil0" d="M320.3 86.49c4.15,14.95 4.11,30.69 4.05,46.2 1.63,-4.86 4.49,-9.3 8.25,-12.79 0.72,-0.67 1.5,-1.33 1.92,-2.22 0.3,-0.61 0.4,-1.3 0.5,-1.97 0.73,-5.15 0.76,-10.39 0.11,-15.55 -1.18,-9.31 -5.13,-18.94 -13.15,-23.8l-1.68 10.14zm0 0l0 0 0 0z"/>
  </g>
  <path class="fil7" d="M249.43 76.07c1.68,0 1.69,-2.62 0,-2.62 -1.69,0 -1.69,2.62 0,2.62l0 0z"/>
  <path class="fil0" d="M199.96 111.63l-0.05 -0.14c0,-0.05 0.09,-0.21 0.14,-0.31 0.11,-0.23 0.21,-0.46 0.35,-0.7 0.27,-0.47 0.55,-0.93 0.87,-1.38 0.63,-0.9 1.36,-1.74 2.16,-2.51 1.59,-1.58 3.52,-2.75 5.52,-3.75 4.08,-1.88 8.57,-2.51 12.81,-2.23 4.29,0.13 8.37,1.17 12.24,2.54 1.9,0.76 3.77,1.59 5.58,2.51 1.76,1.02 3.5,2.06 5.15,3.24 0.6,0.43 0.74,1.27 0.31,1.87 -0.29,0.41 -0.77,0.6 -1.24,0.55l-0.09 -0.01c-1.99,-0.24 -3.89,-0.61 -5.76,-1.01 -1.88,-0.36 -3.77,-0.59 -5.59,-1 -0.92,-0.15 -1.84,-0.23 -2.76,-0.36 -0.91,-0.12 -1.81,-0.35 -2.72,-0.39 -1.81,-0.08 -3.6,-0.39 -5.35,-0.34 -3.52,-0.01 -6.96,0.15 -10.21,1.02 -0.79,0.24 -1.66,0.38 -2.42,0.72 -0.81,0.26 -1.61,0.56 -2.39,0.94 -0.78,0.36 -1.59,0.73 -2.35,1.21 -0.41,0.21 -0.79,0.45 -1.19,0.71l-0.62 0.39c-0.12,0.08 -0.18,0.11 -0.35,0.23 -0.19,0.14 -0.38,0.27 -0.57,0.38 -0.25,0.15 -0.57,0.07 -0.72,-0.18 -0.02,-0.03 -0.03,-0.06 -0.04,-0.09l-0.68 -1.91z"/>
  <path class="fil0" d="M251.4 167.03c1.31,-0.65 20.03,-1.42 21.27,-5.89 1.24,-4.47 -15.05,-26.5 -10.47,-38.61 0,0 7.85,-20.28 22.9,-22.58 15.05,-2.29 -13.41,14.4 -16.69,20.94 -3.27,6.54 9.86,37.08 10.07,42.1 0.22,5.02 -13.67,5.34 -13.67,5.34l-13.41 -1.31z"/>
  <path class="fil4 str0" d="M200.03 90.8c0,0 -15.05,-68.71 20.28,-84.41"/>
  <path class="fil4 str0" d="M281.82 6.38c1.96,0.65 22.9,4.58 25.52,55.62"/>
  <polygon class="fil7" points="204.32,256.35 259.58,361.05 314.26,265.07 350.53,286.45 385.87,336.18 319.78,308.05 260.23,366.94 219.01,312.63 158.8,340.11 166,281.22 "/>
  <path class="fil5" d="M123.88 522.65l-123.88 -35.96c0,0 5.94,-18.01 14.45,-41.75 10.78,-30.05 25.68,-69.28 37.88,-92.69 5.81,-11.15 11.02,-18.71 14.87,-20l30.55 11.33 26.14 179.06z"/>
  <line class="fil4 str0" x1="260.23" y1="366.94" x2="260.23" y2= "522.65" />
  <path class="fil0" d="M273.76 109.12c2.52,-3.58 6,-6.08 9.93,-7.81 3.91,-1.74 8.28,-2.65 12.62,-2.5 4.31,0.2 8.64,1.07 12.41,3.02 1.97,0.77 3.63,2.12 5.36,3.22 1.61,1.32 3.11,2.74 4.46,4.29 0.49,0.57 0.43,1.42 -0.14,1.91 -0.32,0.28 -0.73,0.38 -1.12,0.31l-0.18 -0.03c-2,-0.36 -3.76,-1.01 -5.55,-1.48l-2.66 -0.66c-0.87,-0.26 -1.72,-0.51 -2.6,-0.62 -3.45,-0.82 -6.84,-1.13 -10.2,-1.34 -3.37,-0.16 -6.73,0.21 -10.16,0.79 -3.41,0.62 -6.92,1.66 -10.43,2.89l-0.19 0.07c-0.7,0.24 -1.46,-0.12 -1.71,-0.82 -0.15,-0.42 -0.07,-0.87 0.16,-1.21z"/>
  <path class="fil5" d="M397.86 512.87l0 -10.47 -15.7 -92.47c0,0 61.09,-76.8 72.43,-72.43 2.22,0.86 5.42,6.6 9.13,15.26 1.15,2.72 2.38,5.73 3.61,8.98 7.3,18.85 15.76,45.41 22.56,67.82 0,0 0.03,0 0.03,0.03 1.44,4.76 2.8,9.34 4.08,13.61 5.1,17.22 8.56,29.55 8.56,29.55 0,0 -99.46,40.13 -104.7,40.13z"/>
  <line class="fil4 str0" x1="73.73" y1="369.56" x2="105.65" y2= "522.65" />
  <path class="fil4 str0" d="M451.31 347.96c-0.65,1.96 -36.25,174.69 -36.25,174.69"/>
  <path class="fil4 str0" d="M387.3 522.65c-3.93,-1.31 -102.62,0 -102.62,0l4.56 -101.4 111.9 1.96 -4.97 32 -8.87 67.43z"/>
  <path class="fil4 str0" d="M395.9 457.9c-18.47,-2.64 -37.71,-0.26 -58.24,10.47 -10.22,-9.53 -27.81,-12.6 -49.08,-12.43"/>
  <line class="fil4 str0" x1="9.61" y1="459.64" x2="102.09" y2= "503.27" />
  <line class="fil4 str0" x1="407.46" y1="482.33" x2="494.71" y2= "446.56" />
  <path class="fil3" d="M240.09 177.83l44.5 0c0,0 -6.76,23.99 -25.08,23.99 -18.32,0 -19.41,-23.99 -19.41,-23.99z"/>
  <path class="fil0" d="M252.31 207.06c5.13,1.88 10.8,1.61 16.8,0 0,0 -5.89,4.58 -10.47,4.58 -4.58,0 -6.33,-4.58 -6.33,-4.58z"/>
  <path class="fil0" d="M231.59 129.51c0,4.92 -3.56,8.98 -8.22,9.76 -0.55,0.11 -1.13,0.16 -1.7,0.16 -1.07,0 -2.12,-0.16 -3.09,-0.5l-0.03 0c-3.95,-1.31 -6.81,-5.02 -6.81,-9.42 0,-0.99 0.16,-1.96 0.42,-2.85 1.31,-0.44 2.72,-0.81 4.27,-1.05 0,0 0,0 0,-0.03 4.21,-0.68 9.21,-0.47 14.5,1.86 0.16,0.08 0.31,0.13 0.47,0.21 0.13,0.6 0.18,1.23 0.18,1.86z"/>
  <path class="fil0" d="M303.57 129.95c0,4 -2.38,7.43 -5.78,9 -1.26,0.6 -2.64,0.92 -4.14,0.92 -0.73,0 -1.44,-0.08 -2.12,-0.24 0,0 -0.03,0 -0.05,0 -4.45,-0.99 -7.75,-4.95 -7.75,-9.69 0,-1.02 0.16,-1.99 0.42,-2.91 5.18,-2.07 10.1,-2.23 14.29,-1.54 0,0.03 0,0.03 0,0.03 1.65,0.26 3.17,0.65 4.55,1.13 0.39,1.02 0.58,2.15 0.58,3.3z"/>
  <path class="fil3" d="M186.65 163.65c0,3.01 -2.44,5.45 -5.45,5.45 -3.01,0 -5.45,-2.44 -5.45,-5.45 0,-3.01 2.44,-5.45 5.45,-5.45 3.01,0 5.45,2.44 5.45,5.45z"/>
  <path class="fil3" d="M335.42 163.65c0,3.01 -2.44,5.45 -5.45,5.45 -3.01,0 -5.45,-2.44 -5.45,-5.45 0,-3.01 2.44,-5.45 5.45,-5.45 3.01,0 5.45,2.44 5.45,5.45z"/>
 </g>
</svg>
