<?xml version="1.0" encoding="UTF-8"?>
<!DOCTYPE svg PUBLIC "-//W3C//DTD SVG 1.1//EN" "http://www.w3.org/Graphics/SVG/1.1/DTD/svg11.dtd">
<!-- Creator: CorelDRAW -->
<svg xmlns="http://www.w3.org/2000/svg" xml:space="preserve" width="3.40379in" height="3.58715in" version="1.1" style="shape-rendering:geometricPrecision; text-rendering:geometricPrecision; image-rendering:optimizeQuality; fill-rule:evenodd; clip-rule:evenodd"
viewBox="0 0 346.94 365.63"
 xmlns:xlink="http://www.w3.org/1999/xlink"
 xmlns:xodm="http://www.corel.com/coreldraw/odm/2003">
 <defs>
  <style type="text/css">
   <![CDATA[
    .fil15 {fill:#15151E;fill-rule:nonzero}
    .fil5 {fill:#2D2F3D;fill-rule:nonzero}
    .fil8 {fill:#4956CE;fill-rule:nonzero}
    .fil10 {fill:#4C1F0D;fill-rule:nonzero}
    .fil6 {fill:#554F5B;fill-rule:nonzero}
    .fil9 {fill:#837E89;fill-rule:nonzero}
    .fil14 {fill:#A7D1D8;fill-rule:nonzero}
    .fil0 {fill:#A8A8A8;fill-rule:nonzero}
    .fil13 {fill:#C1535C;fill-rule:nonzero}
    .fil17 {fill:#C6C6C6;fill-rule:nonzero}
    .fil7 {fill:#CEE6EF;fill-rule:nonzero}
    .fil4 {fill:#E08D68;fill-rule:nonzero}
    .fil2 {fill:#EDA580;fill-rule:nonzero}
    .fil12 {fill:#F1F2F2;fill-rule:nonzero}
    .fil1 {fill:#F44921;fill-rule:nonzero}
    .fil16 {fill:#F7C6AA;fill-rule:nonzero}
    .fil3 {fill:#FCBD9A;fill-rule:nonzero}
    .fil11 {fill:#FF817B;fill-rule:nonzero;fill-opacity:0.231373}
   ]]>
  </style>
 </defs>
 <g id="Layer_x0020_1">
  <metadata id="CorelCorpID_0Corel-Layer"/>
  <path class="fil0" d="M299.85 132.1c0,2.23 -1.81,4.04 -4.04,4.04 -2.23,0 -4.04,-1.81 -4.04,-4.04 0,-2.23 1.81,-4.04 4.04,-4.04 2.23,0 4.04,1.81 4.04,4.04z"/>
  <path class="fil1" d="M266.31 232.45c0,60.31 -40.34,112.25 -96.93,128.09 -85.82,24.08 -169.38,-40.47 -169.38,-128.09 0,-73.54 59.62,-133.15 133.15,-133.15 73.54,0 133.16,59.6 133.16,133.15z"/>
  <path class="fil2" d="M105.65 163.85c-0.27,11.1 0.11,28.72 0.11,28.72 0,0 54.16,-0.08 54.23,-0.1l-0.08 -28.63 -54.26 0z"/>
  <path class="fil3" d="M185.66 132.62l0 0c-2.5,0 -4.55,-1.86 -4.55,-4.12l0 -13.41c0,-2.27 2.05,-4.12 4.55,-4.12l0 0c2.5,0 4.55,1.86 4.55,4.12l0 13.41c0,2.27 -2.05,4.12 -4.55,4.12z"/>
  <path class="fil4" d="M182.83 127.17l0 -10.74c0,-3.24 4.9,-3.24 4.9,0l0 10.74c0,3.25 -4.9,3.23 -4.9,0z"/>
  <path class="fil3" d="M77.07 131.25l0 0c2.45,0 4.46,-1.86 4.46,-4.12l0 -13.41c0,-2.27 -2.01,-4.12 -4.46,-4.12l0 0c-2.45,0 -4.46,1.86 -4.46,4.12l0 13.41c-0,2.27 2.01,4.12 4.46,4.12z"/>
  <path class="fil4" d="M79.85 126.13l0 -10.74c0,-3.24 -4.9,-3.24 -4.9,0l0 10.74c0,3.25 4.9,3.23 4.9,0z"/>
  <path class="fil5" d="M196.94 349.35c-45.5,25.01 -97.2,18.39 -130.32,-1.57l3.66 -26.89 122.4 0 4.26 28.46z"/>
  <path class="fil3" d="M177.18 70.78l-90.75 0 -6.39 66.87c0,17.09 20.24,31.21 37.32,31.21l9.17 0c1.07,2.17 3.28,3.68 5.85,3.68l1.37 0c2.57,0 4.78,-1.52 5.85,-3.68l6.64 0c17.09,0 36.44,-13.85 36.44,-30.94l-5.5 -67.15z"/>
  <path class="fil2" d="M265.21 211.67l-0.73 -0.49 -3.11 -2.11 11.3 -8.27c0.07,0.15 3.89,-4.34 6.23,-7.12 1.02,-1.21 2.78,-1.47 4.11,-0.61l0 0c1.4,0.9 1.86,2.73 1.05,4.18l-4.04 7.28c-4.24,4.94 -8.29,11.59 -14.82,7.15z"/>
  <path class="fil3" d="M315.6 192.26c-1.2,-1.28 -3.21,-1.36 -4.49,-0.16l-1.48 1.38c-1.12,-0.48 -2.47,-0.3 -3.42,0.59l-1.56 1.45c-1.01,-0.25 -2.11,-0 -2.93,0.76l-8.67 8.07 -24.54 0c-5.86,0 -9.12,6.96 -9.65,10.76l-40.08 54.61c12.95,22.57 20.74,14.44 22.92,11.12 -0.02,0.32 30.66,-56.94 34.13,-63.42l17.61 -0 15.01 -10.08 7 -10.57c1.29,-1.2 1.36,-3.21 0.16,-4.5z"/>
  <rect class="fil6" x="268.39" y="188.7" width="55.57" height="4.12"/>
  <path class="fil7" d="M234.67 248.68c-5.26,-14.09 -8.67,-32.88 -14.8,-46.4 -6.89,-14.73 -15.96,-12.72 -58.32,-19.04l0 -11.15 -21.25 0 -7.16 11.11 -6.82 -11.11 -22.39 0 0 11.05c-44.21,6.85 -47.66,2.55 -55.75,18.11 -10.54,20.9 -24.28,38.17 -32.34,57.3 0.04,0.18 23.05,14.39 23.05,14.39 7.72,-7.15 22.97,-21.61 30.26,-32.36 -6.06,14.64 -9.12,42.55 0.96,80.28l63.26 0.04 59.32 -0.04c18.59,-20.68 13.51,-46.86 8.48,-73.99 23.71,35.05 26.94,34.64 26.94,34.64 -0.01,0.24 6.57,-32.83 6.57,-32.83z"/>
  <path class="fil8" d="M115.75 223.65c0,2.53 -2.05,4.58 -4.58,4.58 -2.53,0 -4.58,-2.05 -4.58,-4.58 0,-2.53 2.05,-4.58 4.58,-4.58 2.53,0 4.58,2.05 4.58,4.58z"/>
  <circle class="fil8" cx="111.17" cy="256.65" r="4.58"/>
  <path class="fil8" d="M115.75 286.9c0,2.53 -2.05,4.58 -4.58,4.58 -2.53,0 -4.58,-2.05 -4.58,-4.58 0,-2.53 2.05,-4.58 4.58,-4.58 2.53,-0 4.58,2.05 4.58,4.58z"/>
  <path class="fil8" d="M160.61 223.65c0,2.53 -2.05,4.58 -4.58,4.58 -2.53,0 -4.58,-2.05 -4.58,-4.58 0,-2.53 2.05,-4.58 4.58,-4.58 2.53,0 4.58,2.05 4.58,4.58z"/>
  <path class="fil8" d="M160.61 256.65c0,2.53 -2.05,4.58 -4.58,4.58 -2.53,0 -4.58,-2.05 -4.58,-4.58 0,-2.53 2.05,-4.58 4.58,-4.58 2.53,-0 4.58,2.05 4.58,4.58z"/>
  <path class="fil8" d="M160.61 286.9c0,2.53 -2.05,4.58 -4.58,4.58 -2.53,0 -4.58,-2.05 -4.58,-4.58 0,-2.53 2.05,-4.58 4.58,-4.58 2.53,-0 4.58,2.05 4.58,4.58z"/>
  <polygon class="fil9" points="346.94,184.69 323.93,188.81 268.54,188.81 244.67,184.69 244.67,180.45 346.94,180.45 "/>
  <path class="fil10" d="M92.78 110.62l-0 -0c0,-12.66 25.73,-10.77 26.81,-5.7l-0.13 3.75c-9.59,-1.66 -18.39,-3.5 -26.68,1.95z"/>
  <path class="fil10" d="M167.85 110.31c0,-0 0,-0 0,-0 -1.23,-12.66 -25.93,-10.36 -26.93,-5.08l-0.08 3.56c9.6,-1.88 18.65,-3.73 27.01,1.52z"/>
  <path class="fil11" d="M111.27 127.49c0,5.42 -4.43,9.81 -9.9,9.81 -5.47,0 -9.9,-4.39 -9.9,-9.81 0,-5.42 4.43,-9.81 9.9,-9.81 5.47,0 9.9,4.39 9.9,9.81z"/>
  <path class="fil11" d="M168.71 127.49c0,5.42 -4.43,9.81 -9.9,9.81 -5.47,0 -9.9,-4.39 -9.9,-9.81 0,-5.42 4.43,-9.81 9.9,-9.81 5.47,0 9.9,4.39 9.9,9.81z"/>
  <path class="fil4" d="M124.27 131.44l1.59 -1.41c3.76,3.34 9.26,2.85 11.56,-0.22l1.87 1.11c-3.05,4.07 -10.2,4.8 -15.02,0.52z"/>
  <path class="fil10" d="M179.3 67.87c3.34,-25.42 -23.54,-26.52 -56.72,-25.44 -18.87,0.61 -44.18,7.96 -44.86,50.13 -0.63,20.22 3.54,32.28 3.54,32.28l8.32 -30.16c0.92,-0.08 61.84,0.27 83.87,-18.73 -1.85,0.33 7.91,47.23 7.91,47.87 8.31,-18.65 5.35,-39.89 -2.06,-55.94z"/>
  <path class="fil12" d="M134.09 155.48c-18.01,0.7 -19.12,-12.27 -17.74,-11.92 10.06,2.52 20.46,2.37 31.17,0 1.37,-0.3 -0.54,11.42 -13.42,11.92z"/>
  <path class="fil13" d="M132.7 156.19c-10.33,0 -14.54,-4.62 -16.14,-7.38 -1.33,-2.3 -1.6,-4.58 -1.09,-5.46 0.26,-0.45 0.6,-0.53 1.03,-0.47 9.6,2.41 19.96,2.41 30.85,-0 0.86,-0.1 1.2,0.54 1.21,1.41 0.05,2.69 -3.13,11.91 -15.87,11.91zm-16.09 -11.87c-0.19,2.6 3.11,11.03 17.45,10.46 10.3,-0.4 13.19,-8.25 13.15,-10.48 -5.33,1.17 -10.67,1.76 -15.76,1.76l-0 0c-5.06,0 -10.05,-0.59 -14.83,-1.75z"/>
  <polygon class="fil14" points="186.35,96.17 77.32,96.23 80.4,47.25 181.99,46.21 "/>
  <path class="fil7" d="M158.69 1.62c-28.43,-5.67 -55.26,4.01 -64.35,22 -20.2,-2.97 -38.86,9.8 -38.53,26.46 0.45,22.62 33.31,33.74 53.83,19.18 33.99,25.76 90.58,17.16 97.86,-15.53 4.99,-22.41 -16.86,-45.74 -48.82,-52.11z"/>
  <path class="fil10" d="M111.65 143.21c11.98,-3.58 13.48,-1.22 19.73,0l0 -1.4c0,-4.53 -3.78,-7.69 -8.22,-8.54 -11.93,-2.27 -14.03,11.23 -21.15,2.78 0.55,4.78 1.64,9.04 9.64,7.16z"/>
  <path class="fil15" d="M160.71 115.13c-5.33,-4.97 -13.9,-4.74 -18.05,-0.16l1.38 0.92c1.19,-1.31 3.36,-2.35 5.62,-2.71 -2.61,1.91 -1.04,5.82 1.89,5.82 3.24,0 4.23,-3.87 2.06,-5.68 2.15,0.46 4.31,1.49 5.9,2.83l1.19 -1.01z"/>
  <path class="fil15" d="M119.46 115.13c-5.33,-4.97 -13.9,-4.74 -18.05,-0.16l1.38 0.92c1.19,-1.31 3.36,-2.35 5.62,-2.71 -2.61,1.91 -1.04,5.82 1.89,5.82 3.24,0 4.23,-3.87 2.06,-5.68 2.15,0.46 4.32,1.49 5.9,2.83l1.19 -1.01z"/>
  <path class="fil16" d="M15.82 258.54l23.05 14.39 24.97 40.5c1.15,-2.61 1.21,-2.7 3.52,-4.01l3.72 5.54 27.21 17.44c3.42,2.2 0.09,7.37 -3.33,5.17l-14.86 -9.57 -0.48 0.75 17.41 11.21c3.42,2.2 0.09,7.37 -3.33,5.17l-17.41 -11.21 -0.48 0.75 14.85 9.56c3.42,2.2 0.09,7.37 -3.33,5.17l-14.85 -9.56 -0.46 0.72 11.74 7.56c3.45,2.22 0.09,7.44 -3.36,5.22l-23.51 -15.41c-2.51,-1.62 -3.43,-5.3 -3.12,-8.09 0,0 -25.33,-27.91 -43.83,-50.11 -2.93,-3.45 0.09,-12.34 5.87,-21.19z"/>
  <path class="fil10" d="M152.14 143.21c-11.98,-3.58 -13.48,-1.22 -19.73,0l0 -1.4c0,-4.53 3.78,-7.69 8.22,-8.54 11.93,-2.27 14.03,11.23 21.15,2.78 -0.55,4.78 -1.64,9.04 -9.64,7.16z"/>
  <path class="fil17" d="M342.62 180.45l-93.62 0c0.73,-25.24 21.39,-45.49 46.81,-45.49 25.41,0 46.08,20.25 46.81,45.49z"/>
  <path class="fil0" d="M295.81 134.96l0 45.49 -46.81 0c0.73,-25.24 21.39,-45.49 46.81,-45.49z"/>
 </g>
</svg>
