<?xml version="1.0" encoding="UTF-8"?>
<!DOCTYPE svg PUBLIC "-//W3C//DTD SVG 1.0//EN" "http://www.w3.org/TR/2001/REC-SVG-20010904/DTD/svg10.dtd">
<!-- Creator: CorelDRAW -->
<svg xmlns="http://www.w3.org/2000/svg" xml:space="preserve" width="0.944984in" height="0.561134in" version="1.0" style="shape-rendering:geometricPrecision; text-rendering:geometricPrecision; image-rendering:optimizeQuality; fill-rule:evenodd; clip-rule:evenodd"
viewBox="0 0 391.37 232.39"
 xmlns:xlink="http://www.w3.org/1999/xlink"
 xmlns:xodm="http://www.corel.com/coreldraw/odm/2003">
 <defs>
  <style type="text/css">
   <![CDATA[
    .fil4 {fill:#2E384C;fill-rule:nonzero}
    .fil1 {fill:#E01221;fill-rule:nonzero}
    .fil5 {fill:#EBEBED;fill-rule:nonzero}
    .fil0 {fill:#ED1C24;fill-rule:nonzero}
    .fil6 {fill:#EDE807;fill-rule:nonzero}
    .fil3 {fill:#EF4351;fill-rule:nonzero}
    .fil2 {fill:#FFF2DE;fill-rule:nonzero}
   ]]>
  </style>
 </defs>
 <g id="Layer_x0020_1">
  <metadata id="CorelCorpID_0Corel-Layer"/>
  <path class="fil0" d="M318.08 56.8l-5.88 -27.64c-3.62,-17 -18.63,-29.16 -36.02,-29.16l-239.37 0c-20.34,0 -36.82,16.49 -36.82,36.83l0 167.9 390.84 -0 0 -58.39c0,-22.9 -14.81,-43.17 -36.62,-50.14l-0.66 -0.22c-18.01,-5.75 -31.55,-20.71 -35.48,-39.19z"/>
  <rect class="fil1" x="244.82" y="14.76" width="24.28" height="178.9"/>
  <rect class="fil1" x="220.54" y="14.76" width="24.28" height="178.9"/>
  <path class="fil2" d="M315.55 98.99l-33.23 0c-1.19,0 -2.15,-0.96 -2.15,-2.15l0 -72.25c0,-2.31 3.14,-3 4.1,-0.9l33.22 72.24c0.66,1.43 -0.39,3.05 -1.95,3.05z"/>
  <path class="fil3" d="M315.55 100.83l-33.23 0c-2.2,0 -3.99,-1.79 -3.99,-3.99l0 -72.25c0,-2.25 1.76,-4 4.03,-4 1.56,0 2.94,0.89 3.6,2.33l33.22 72.25c0.57,1.24 0.47,2.67 -0.27,3.83 -0.74,1.15 -2,1.84 -3.36,1.84zm-32.95 -76.37l-0.59 0.13 0 72.25 33.53 0.31c0.11,0 0.19,-0.05 0.26,-0.14l-33.21 -72.55z"/>
  <path class="fil2" d="M231.84 104.21l-0.12 0c-3.11,0 -5.64,-2.53 -5.64,-5.65l0 -70.48c0,-3.12 2.53,-5.65 5.64,-5.65l0.12 0c3.12,0 5.65,2.53 5.65,5.65l0 70.48c0,3.12 -2.53,5.65 -5.65,5.65z"/>
  <path class="fil3" d="M231.84 106.06l-0.12 0c-4.13,0 -7.49,-3.36 -7.49,-7.49l0 -70.48c0,-4.13 3.36,-7.49 7.49,-7.49 4.25,0 7.61,3.36 7.61,7.49l0 70.48c-0,4.13 -3.37,7.49 -7.49,7.49zm0 -81.78c-2.21,0 -3.92,1.71 -3.92,3.81l0 70.48c0,2.1 1.71,3.81 3.8,3.81l0.12 -0c2.1,0 3.81,-1.71 3.81,-3.81l0 -70.48c-0,-2.1 -1.71,-3.8 -3.81,-3.8z"/>
  <path class="fil2" d="M257.02 104.21l-0.11 0c-3.11,0 -5.65,-2.53 -5.65,-5.65l0 -70.48c0,-3.12 2.53,-5.65 5.65,-5.65l0.11 0c3.12,0 5.65,2.53 5.65,5.65l0 70.48c-0,3.12 -2.53,5.65 -5.65,5.65z"/>
  <path class="fil3" d="M257.02 106.06l-0.11 0c-4.13,0 -7.49,-3.36 -7.49,-7.49l0 -70.48c0,-4.13 3.35,-7.49 7.49,-7.49 4.25,0 7.61,3.36 7.61,7.49l0 70.48c-0,4.13 -3.37,7.49 -7.5,7.49zm0 -81.78c-2.21,0 -3.91,1.71 -3.91,3.81l0 70.48c0,2.1 1.71,3.81 3.8,3.81l0.11 -0c2.1,0 3.81,-1.71 3.81,-3.81l0 -70.48c-0,-2.1 -1.71,-3.8 -3.81,-3.8z"/>
  <path class="fil4" d="M378.85 193.66c0,21.39 -17.33,38.73 -38.73,38.73 -21.39,0 -38.73,-17.34 -38.73,-38.73 0,-21.39 17.35,-38.73 38.73,-38.73 21.39,-0 38.73,17.34 38.73,38.73z"/>
  <path class="fil5" d="M355.8 193.66c0,8.66 -7.02,15.68 -15.68,15.68 -8.65,0 -15.68,-7.02 -15.68,-15.68 0,-8.66 7.02,-15.68 15.68,-15.68 8.66,0 15.68,7.01 15.68,15.68z"/>
  <ellipse class="fil4" transform="matrix(0.0263 -0.999699 0.999699 0.0263 85.449 193.591)" rx="38.73" ry="38.74"/>
  <path class="fil5" d="M101.09 193.66c0,8.66 -7.01,15.68 -15.68,15.68 -8.66,0 -15.68,-7.02 -15.68,-15.68 0,-8.66 7.02,-15.68 15.68,-15.68 8.66,0 15.68,7.01 15.68,15.68z"/>
  <path class="fil3" d="M127.04 211.43l0.18 -0.01c5.25,-0.36 8.93,-5.34 7.7,-10.47l-2.3 -9.98c-4.96,-21.62 -24.21,-36.95 -46.4,-36.95l-8.08 -0c-19.97,0 -37.32,13.7 -41.95,33.12l-3.29 13.8c-1.22,5.12 2.44,10.11 7.7,10.48l0.75 0.05c4.22,0.29 8,-2.56 8.89,-6.69l1.51 -7.03c3.04,-14.21 15.6,-24.37 30.14,-24.37l5.04 0c15.39,0 28.42,11.35 30.53,26.6l0.56 4.04c0.61,4.44 4.54,7.66 9.02,7.41z"/>
  <path class="fil3" d="M383.25 211.43l0.18 -0.01c5.25,-0.36 8.92,-5.34 7.7,-10.47l-2.3 -9.99c-4.97,-21.62 -24.21,-36.94 -46.4,-36.94l-8.08 -0c-19.97,0 -37.32,13.7 -41.95,33.12l-3.29 13.8c-1.22,5.12 2.44,10.11 7.7,10.48l0.75 0.05c4.21,0.29 8,-2.56 8.89,-6.69l1.5 -7.03c3.05,-14.21 15.61,-24.37 30.14,-24.37l5.04 0c15.39,0 28.42,11.35 30.53,26.6l0.56 4.04c0.62,4.44 4.54,7.66 9.02,7.41z"/>
  <path class="fil6" d="M165.03 89.5c-0.32,1.63 -0.96,3.25 -1.53,4.8 -0.77,2.12 -1.86,4.13 -2.97,6.07 -1.84,3.2 -4.13,6.23 -6.8,8.74l0.37 0.4c0.39,0.42 4.39,4.78 4.43,4.73 3.68,-3.48 6.49,-7.67 9.01,-12.08 1.33,-2.32 2.31,-4.9 3.15,-7.45 0.35,-1.04 0.74,-2.08 0.98,-3.16 0.07,-0.32 -0.08,-0.25 -0.37,-0.33 -2.1,-0.57 -4.19,-1.14 -6.28,-1.72z"/>
  <path class="fil6" d="M166.3 75.69c2.3,-0.17 4.61,-0.33 6.92,-0.5 -0.45,-6.39 -2.08,-12.57 -4.83,-18.32 -2.08,1.04 -4.15,2.09 -6.22,3.14 2.35,4.91 3.76,10.21 4.13,15.68z"/>
  <path class="fil6" d="M156.16 40.84c-1.48,1.81 -2.97,3.63 -4.45,5.45 1.6,1.48 3.11,2.97 4.57,4.6 0.68,0.73 1.25,1.55 1.84,2.35 0.03,0.05 0.47,-0.33 0.52,-0.37 1.68,-1.29 3.35,-2.59 5.03,-3.89 -2.24,-3.01 -4.76,-5.63 -7.51,-8.14z"/>
  <path class="fil6" d="M122.9 44.23l17.78 -11.24 -17.78 -10.88 0 7.31c-4.36,0.18 -8.64,0.97 -12.72,2.43 -10.29,3.68 -19.21,10.57 -25.16,19.98 -3.47,5.49 -6.17,12 -7.07,18.51 -0.47,3.4 -0.82,6.83 -0.63,10.27 0.14,2.67 0.49,5.25 0.93,7.88 2.12,-0.45 4.24,-0.89 6.36,-1.34 0.32,-0.07 0.45,0.01 0.39,-0.33 -0.19,-1.15 -0.4,-2.28 -0.55,-3.43 -0.13,-2.59 -0.24,-5.12 -0.15,-7.73 0.09,-2.63 0.72,-5.26 1.3,-7.8 0.58,-2.56 1.54,-5.17 2.71,-7.5 2.22,-4.77 5.35,-9.12 9.15,-12.69 6.93,-6.58 16.09,-10.5 25.46,-11.1l0 7.66 -0 0z"/>
  <path class="fil6" d="M101.24 112.34c4.13,3.15 8.89,5.5 13.87,6.84 2.45,0.73 5.13,1.21 7.69,1.32 2.55,0.11 5.19,0.25 7.72,-0.15 0.67,-0.11 1.32,-0.26 1.97,-0.38 -2.42,0.41 -4.88,0.62 -7.32,0.58 -10.69,-0.14 -21.06,-4.68 -28.58,-12.45 -1.88,-1.95 -3.57,-4.05 -5.04,-6.34 -0.4,-0.63 -0.8,-1.26 -1.21,-1.9 -0.02,-0.03 -0.04,-0.04 -0.07,-0.06 2.79,4.85 6.5,9.16 10.96,12.54z"/>
  <path class="fil6" d="M92.11 113.58c0.11,0.11 0.24,0.21 0.35,0.32 -0.2,-0.2 -0.41,-0.39 -0.6,-0.6 0.09,0.09 0.17,0.18 0.25,0.27z"/>
  <path class="fil6" d="M96.01 117.1c-0.48,-0.4 -0.96,-0.79 -1.42,-1.2 0.47,0.42 0.94,0.81 1.42,1.2z"/>
  <path class="fil6" d="M86.93 107.47c0.4,0.55 0.81,1.09 1.22,1.62 -0.54,-0.7 -1.05,-1.43 -1.56,-2.15 0.12,0.18 0.22,0.36 0.35,0.53z"/>
  <path class="fil6" d="M89.97 111.25c-0.35,-0.41 -0.72,-0.82 -1.05,-1.24 0.34,0.42 0.7,0.83 1.05,1.24z"/>
  <path class="fil6" d="M139.8 125.5c-0.4,0.13 -0.81,0.24 -1.2,0.36 0.4,-0.12 0.8,-0.23 1.2,-0.36z"/>
  <path class="fil6" d="M99.28 119.53c-0.55,-0.38 -1.1,-0.75 -1.64,-1.15 0.54,0.4 1.08,0.78 1.64,1.15z"/>
  <path class="fil6" d="M102.34 121.44c-0.39,-0.22 -0.78,-0.44 -1.16,-0.67 0.38,0.23 0.76,0.45 1.16,0.67z"/>
  <path class="fil6" d="M143.43 124.21c-0.92,0.35 -1.85,0.69 -2.78,1 0.94,-0.31 1.86,-0.63 2.78,-1z"/>
  <path class="fil6" d="M101.19 120.78c-0.65,-0.4 -1.28,-0.82 -1.91,-1.24 0.62,0.43 1.26,0.84 1.91,1.24z"/>
  <path class="fil6" d="M140.66 125.22c-0.29,0.09 -0.57,0.19 -0.86,0.28 0.29,-0.09 0.57,-0.18 0.86,-0.28z"/>
  <path class="fil6" d="M88.91 110.01c-0.26,-0.31 -0.52,-0.6 -0.77,-0.92 0.25,0.32 0.5,0.61 0.77,0.92z"/>
  <path class="fil6" d="M143.92 124.04c0,-0 -0,-0 -0,-0 -0.16,0.07 -0.31,0.12 -0.48,0.18 0.16,-0.06 0.32,-0.11 0.48,-0.17z"/>
  <path class="fil6" d="M132.48 119.97c0.36,-0.07 0.72,-0.14 1.08,-0.21 -0.36,0.08 -0.72,0.14 -1.08,0.21z"/>
  <path class="fil6" d="M91.86 113.3c-0.64,-0.67 -1.28,-1.35 -1.89,-2.05 0.61,0.7 1.24,1.39 1.89,2.05z"/>
  <path class="fil6" d="M97.64 118.38c-0.56,-0.41 -1.1,-0.85 -1.63,-1.28 0.53,0.44 1.07,0.87 1.63,1.28z"/>
  <path class="fil6" d="M105.31 123.01c-1.01,-0.47 -1.99,-1 -2.97,-1.56 1.68,0.97 3.4,1.87 5.21,2.63 5.91,2.47 12.64,3.97 19.05,3.66 3.35,-0.17 6.69,-0.46 9.95,-1.29 0.69,-0.17 1.36,-0.4 2.04,-0.6 -0.55,0.15 -1.1,0.31 -1.64,0.44 -10.63,2.62 -21.72,1.31 -31.65,-3.29z"/>
  <path class="fil6" d="M94.59 115.9c-0.73,-0.65 -1.44,-1.31 -2.13,-2 0.69,0.69 1.39,1.36 2.13,2z"/>
  <path class="fil6" d="M141.06 117.55c-1.06,0.4 -2.11,0.83 -3.18,1.19 -1.44,0.36 -2.87,0.7 -4.31,1.01 -0.36,0.07 -0.73,0.15 -1.08,0.21 -0.66,0.13 -1.3,0.27 -1.97,0.38 -2.53,0.41 -5.17,0.27 -7.72,0.15 -2.56,-0.11 -5.24,-0.59 -7.69,-1.32 -4.98,-1.34 -9.74,-3.69 -13.87,-6.84 -4.46,-3.38 -8.18,-7.68 -10.96,-12.54 -0.11,-0.09 -0.23,0.05 -0.4,0.15 -1.87,1.13 -3.74,2.25 -5.6,3.37 0.77,1.2 1.51,2.43 2.31,3.61 0.51,0.73 1.02,1.45 1.56,2.15 0.25,0.31 0.51,0.61 0.77,0.92 0.34,0.42 0.7,0.83 1.05,1.24 0.62,0.69 1.25,1.38 1.89,2.05 0.2,0.2 0.4,0.4 0.6,0.6 0.68,0.69 1.39,1.35 2.13,2 0.47,0.41 0.94,0.81 1.42,1.2 0.53,0.44 1.07,0.87 1.63,1.28 0.53,0.4 1.08,0.77 1.64,1.15 0.63,0.43 1.26,0.85 1.91,1.24 0.38,0.23 0.77,0.45 1.16,0.67 0.98,0.56 1.96,1.1 2.97,1.56 9.93,4.59 21.02,5.91 31.65,3.29 0.54,-0.13 1.09,-0.29 1.64,-0.44 0.4,-0.12 0.81,-0.23 1.2,-0.36 0.29,-0.09 0.57,-0.19 0.86,-0.28 0.93,-0.31 1.86,-0.65 2.78,-1 0.16,-0.07 0.32,-0.12 0.48,-0.18 -0.82,-2.05 -1.65,-4.11 -2.46,-6.16 -0.13,-0.31 -0.07,-0.45 -0.39,-0.33z"/>
  <path class="fil6" d="M121.08 103.11l-22.03 0c-1.1,0 -2.15,-0.5 -2.86,-1.35 -0.7,-0.86 -1.02,-2 -0.84,-3.11 0.04,-0.2 0.82,-5.09 1.47,-7.83 0.55,-2.31 2.41,-5.39 12.14,-12.24 6.55,-4.6 7.92,-6.3 8.52,-8.39 0.43,-1.47 0.49,-4.62 -1.12,-6.83 -1.33,-1.83 -3.68,-2.76 -6.95,-2.76 -1.97,0 -3.41,0.51 -4.37,1.55 -1.58,1.7 -1.8,4.65 -1.77,5.34 0.11,2.12 -1.49,3.92 -3.56,4.02 -2.13,0.09 -3.82,-1.54 -3.91,-3.67 -0.03,-0.68 -0.18,-6.71 3.83,-11.01 1.67,-1.79 4.73,-3.93 9.8,-3.93 7.2,0 11.03,3.18 12.96,5.85 3.08,4.23 3.37,9.89 2.3,13.62 -1.38,4.82 -4.66,7.77 -11.47,12.56 -8,5.62 -9.06,7.65 -9.14,7.86 -0.18,0.72 -0.36,1.66 -0.53,2.64l17.55 -0c2.07,0 3.75,1.72 3.75,3.85 -0.01,2.12 -1.69,3.84 -3.76,3.84z"/>
  <path class="fil6" d="M146.86 103.11c-2.06,0 -3.75,-1.72 -3.75,-3.85l0 -9.73 -13.71 0c-1.36,0 -2.61,-0.75 -3.28,-1.98 -0.66,-1.22 -0.63,-2.71 0.09,-3.9l17.46 -28.94c0.88,-1.46 2.62,-2.14 4.22,-1.68 1.61,0.47 2.72,1.98 2.72,3.7l0 25.1 0.83 0c2.08,0 3.75,1.72 3.75,3.84 0,2.13 -1.68,3.85 -3.75,3.85l-0.84 0 0 9.73c0,2.13 -1.68,3.85 -3.75,3.85zm-10.73 -21.27l6.98 0 0 -11.58 -6.98 11.58z"/>
 </g>
</svg>
