<?xml version="1.0" encoding="UTF-8"?>
<!DOCTYPE svg PUBLIC "-//W3C//DTD SVG 1.0//EN" "http://www.w3.org/TR/2001/REC-SVG-20010904/DTD/svg10.dtd">
<!-- Creator: CorelDRAW -->
<svg xmlns="http://www.w3.org/2000/svg" xml:space="preserve" width="5.20938in" height="6.25608in" version="1.0" style="shape-rendering:geometricPrecision; text-rendering:geometricPrecision; image-rendering:optimizeQuality; fill-rule:evenodd; clip-rule:evenodd"
viewBox="0 0 350.86 421.35"
 xmlns:xlink="http://www.w3.org/1999/xlink"
 xmlns:xodm="http://www.corel.com/coreldraw/odm/2003">
 <defs>
  <style type="text/css">
   <![CDATA[
    .fil9 {fill:#56A8B4;fill-rule:nonzero}
    .fil1 {fill:#7BD4E6;fill-rule:nonzero}
    .fil7 {fill:#A2A6B1;fill-rule:nonzero}
    .fil3 {fill:#A3A7B2;fill-rule:nonzero}
    .fil0 {fill:#AFE0EE;fill-rule:nonzero}
    .fil5 {fill:#B4C0D1;fill-rule:nonzero}
    .fil4 {fill:#D0D9E8;fill-rule:nonzero}
    .fil2 {fill:#D2F7FF;fill-rule:nonzero}
    .fil6 {fill:#EAEFF5;fill-rule:nonzero}
    .fil8 {fill:white;fill-rule:nonzero}
    .fil10 {fill:white;fill-rule:nonzero;fill-opacity:0.400000}
   ]]>
  </style>
 </defs>
 <g id="Layer_x0020_1">
  <metadata id="CorelCorpID_0Corel-Layer"/>
  <g id="__x003c_Group_x003e_">
   <g id="__x003c_Group_x003e__0">
    <path id="__x003c_Path_x003e_" class="fil0" d="M32.69 44.16c-0.42,21.47 -32.27,21.47 -32.69,0 0.42,-21.4 32.27,-21.4 32.69,0z"/>
   </g>
   <g id="__x003c_Group_x003e__1">
    <path id="__x003c_Path_x003e__2" class="fil1" d="M32.69 44.16c0.14,19.29 -28.34,22.17 -32.27,3.58 9.75,14.38 33.32,4.14 29.26,-12.98 1.89,2.67 3.02,5.89 3.02,9.4z"/>
   </g>
   <g id="__x003c_Group_x003e__3">
    <path id="__x003c_Path_x003e__4" class="fil2" d="M18.03 31.68c3.16,5.12 -10.24,12.84 -13.12,7.58 -3.16,-5.12 10.24,-12.91 13.12,-7.58z"/>
   </g>
  </g>
  <g id="__x003c_Group_x003e__5">
   <g id="__x003c_Group_x003e__6">
    <path id="__x003c_Path_x003e__7" class="fil0" d="M171.61 19.89c-0.42,26.59 -39.99,26.59 -40.41,0 0.42,-26.52 39.99,-26.52 40.41,0z"/>
   </g>
   <g id="__x003c_Group_x003e__8">
    <path id="__x003c_Path_x003e__9" class="fil1" d="M171.61 19.89c0.21,23.85 -35.08,27.43 -39.92,4.42 12.07,17.75 41.25,5.12 36.2,-16.07 2.32,3.23 3.72,7.3 3.72,11.65z"/>
   </g>
   <g id="__x003c_Group_x003e__10">
    <path id="__x003c_Path_x003e__11" class="fil2" d="M153.5 4.38c3.86,6.31 -12.7,15.93 -16.28,9.4 -3.86,-6.38 12.7,-15.93 16.28,-9.4z"/>
   </g>
  </g>
  <g id="__x003c_Group_x003e__12">
   <g id="__x003c_Group_x003e__13">
    <g id="__x003c_Group_x003e__14">
     <path id="__x003c_Path_x003e__15" class="fil3" d="M41.53 67.46l-32.06 25.89c-4,3.23 -6.24,8.07 -6.17,13.26l2.32 285.82c-0.35,17.05 24.63,18.66 35.92,23.78l46.65 -184.65 -46.65 -164.1z"/>
    </g>
    <g id="__x003c_Group_x003e__16">
     <path id="__x003c_Path_x003e__17" class="fil4" d="M331.77 62.27l-277.26 0c-10.52,0 -19.08,8.56 -19.08,19.15l0 320.83c0,10.87 8.98,19.5 19.78,19.08l277.26 -10.31c10.31,-0.35 18.38,-8.77 18.38,-19.08l0 -310.52c0,-10.59 -8.56,-19.15 -19.08,-19.15z"/>
    </g>
    <g id="__x003c_Group_x003e__18">
     <path id="__x003c_Path_x003e__19" class="fil5" d="M350.86 81.42l0 310.52c0,10.31 -8.07,18.73 -18.38,19.08l-277.26 10.31c-13.19,0.63 -21.54,-11.79 -19.78,-24.13l257.83 -9.61c10.24,-0.42 18.38,-8.84 18.38,-19.08l0 -306.24c15.93,-0.07 38.24,-3.23 39.22,19.15z"/>
    </g>
    <g id="__x003c_Group_x003e__20">
     <path id="__x003c_Path_x003e__21" class="fil6" d="M349.31 73.84c-4.98,-2.46 -277.26,0 -282.94,-0.84 -10.52,0 -19.08,8.56 -19.08,19.08l0 320.9c0,2.67 0.56,5.19 1.54,7.51 -7.72,-2.39 -13.4,-9.61 -13.4,-18.24l0 -320.83c0,-10.59 8.56,-19.15 19.08,-19.15l277.26 0c7.86,0 14.66,4.77 17.54,11.58z"/>
    </g>
   </g>
   <g id="__x003c_Group_x003e__22">
    <g id="__x003c_Group_x003e__23">
     <g id="__x003c_Group_x003e__24">
      <path id="__x003c_Path_x003e__25" class="fil7" d="M140.88 119.37c-16.49,15.86 -40.34,-8.07 -24.56,-24.49 16.42,-15.79 40.34,8.07 24.56,24.49z"/>
     </g>
     <g id="__x003c_Group_x003e__26">
      <path id="__x003c_Path_x003e__27" class="fil8" d="M140.88 115.02c-16.49,15.79 -40.34,-8.14 -24.56,-24.56 16.42,-15.79 40.34,8.07 24.56,24.56z"/>
     </g>
     <g id="__x003c_Group_x003e__28">
      <path id="__x003c_Path_x003e__29" class="fil6" d="M144.45 95.73l-22.87 22.87c-3.86,-1.61 -7.23,-5.05 -8.84,-8.91l22.8 -22.8c3.86,1.61 7.3,4.98 8.91,8.84z"/>
     </g>
     <g id="__x003c_Group_x003e__30">
      <path id="__x003c_Path_x003e__31" class="fil8" d="M143.47 87.8c-1.75,-1.75 -4.7,-1.75 -6.45,0l-23.36 23.36c-1.75,1.75 -1.75,4.7 0,6.45 1.82,1.82 4.7,1.82 6.52,0l23.29 -23.36c1.82,-1.75 1.82,-4.63 0,-6.45z"/>
     </g>
    </g>
    <g id="__x003c_Group_x003e__32">
     <g id="__x003c_Group_x003e__33">
      <path id="__x003c_Path_x003e__34" class="fil7" d="M82.22 124.49c-22.8,-0.49 -22.8,-34.24 0,-34.66 22.8,0.42 22.8,34.24 0,34.66z"/>
     </g>
     <g id="__x003c_Group_x003e__35">
      <path id="__x003c_Path_x003e__36" class="fil8" d="M82.22 120.07c-22.8,-0.42 -22.8,-34.24 0,-34.66 22.8,0.42 22.8,34.24 0,34.66z"/>
     </g>
     <g id="__x003c_Group_x003e__37">
      <path id="__x003c_Path_x003e__38" class="fil6" d="M98.43 108.99l-32.34 0c-1.54,-3.86 -1.54,-8.63 0,-12.56l32.34 0c1.54,3.86 1.54,8.7 0,12.56z"/>
     </g>
     <g id="__x003c_Group_x003e__39">
      <path id="__x003c_Path_x003e__40" class="fil8" d="M103.34 102.75c0,-2.53 -2.03,-4.56 -4.56,-4.56l-33.04 0c-2.53,0 -4.56,2.03 -4.56,4.56 0,2.53 2.03,4.56 4.56,4.56l33.04 0c2.53,0 4.56,-2.03 4.56,-4.56z"/>
     </g>
    </g>
    <g id="__x003c_Group_x003e__41">
     <g id="__x003c_Group_x003e__42">
      <path id="__x003c_Path_x003e__43" class="fil7" d="M241.76 89.84l-73.45 0c-7.3,-0.07 -5.82,9.05 -5.89,13.89 0,3.23 2.67,5.82 5.89,5.82l73.45 0c7.3,0.07 5.75,-9.05 5.89,-13.89 0,-3.23 -2.67,-5.82 -5.89,-5.82z"/>
     </g>
     <g id="__x003c_Group_x003e__44">
      <path id="__x003c_Path_x003e__45" class="fil8" d="M241.76 86.47l-73.45 0c-7.3,0 -5.82,9.12 -5.89,13.89 0,3.3 2.67,5.89 5.89,5.89l73.45 -0c7.3,0 5.75,-9.05 5.89,-13.89 0,-3.23 -2.67,-5.89 -5.89,-5.89l0 0z"/>
     </g>
    </g>
    <g id="__x003c_Group_x003e__46">
     <g id="__x003c_Group_x003e__47">
      <path id="__x003c_Path_x003e__48" class="fil7" d="M291.78 99.66c0,12 -18.17,12 -18.24,0 0.07,-11.93 18.24,-11.93 18.24,0z"/>
     </g>
     <g id="__x003c_Group_x003e__49">
      <path id="__x003c_Path_x003e__50" class="fil8" d="M291.78 96.36c0,12 -18.17,12 -18.24,0 0.07,-11.93 18.24,-11.93 18.24,0z"/>
     </g>
    </g>
    <g id="__x003c_Group_x003e__51">
     <g id="__x003c_Group_x003e__52">
      <path id="__x003c_Path_x003e__53" class="fil7" d="M331.7 99.66c-0.07,12 -18.24,12 -18.24,0 0,-11.93 18.17,-11.93 18.24,0z"/>
     </g>
     <g id="__x003c_Group_x003e__54">
      <path id="__x003c_Path_x003e__55" class="fil8" d="M331.7 96.36c-0.07,12 -18.24,12 -18.24,0 0,-11.93 18.17,-11.93 18.24,0z"/>
     </g>
    </g>
   </g>
   <g id="__x003c_Group_x003e__56">
    <g id="__x003c_Group_x003e__57">
     <path id="__x003c_Path_x003e__58" class="fil7" d="M308.9 245.17c-2.46,144.1 -216.79,144.1 -219.24,0 2.46,-144.1 216.86,-144.1 219.24,0z"/>
    </g>
    <g id="__x003c_Group_x003e__59">
     <path id="__x003c_Path_x003e__60" class="fil8" d="M308.9 231.91c-2.46,144.1 -216.79,144.1 -219.24,0 2.46,-144.1 216.86,-144.03 219.24,0z"/>
    </g>
    <g id="__x003c_Group_x003e__61">
     <path id="__x003c_Path_x003e__62" class="fil9" d="M293.26 231.91c-4,124.88 -185.15,123.76 -187.88,-0.7 4.7,-123.62 184.09,-123.06 187.88,0.7z"/>
    </g>
    <g id="__x003c_Group_x003e__63">
     <g id="__x003c_Group_x003e__64">
      <path id="__x003c_Path_x003e__65" class="fil1" d="M293.26 231.91c-14.52,167.54 -258.53,84.68 -168.73,-56.83 13.26,-1.05 27.29,0.98 38.45,9.89 30.73,24.63 39.5,-26.03 71.56,-13.19 17.4,6.95 29.75,6.31 39.57,3.3 12,15.79 19.15,35.5 19.15,56.83l0 0z"/>
     </g>
     <g id="__x003c_Group_x003e__66">
      <g id="__x003c_Group_x003e__67">
       <path id="__x003c_Path_x003e__68" class="fil0" d="M275.44 256.46c0.07,7.3 -11.44,7.3 -11.3,0 -0.14,-7.37 11.37,-7.37 11.3,0z"/>
      </g>
      <g id="__x003c_Group_x003e__69">
       <path id="__x003c_Path_x003e__70" class="fil0" d="M287.93 224.68c0,13.54 -20.63,13.54 -20.7,0 0.07,-13.54 20.7,-13.54 20.7,0z"/>
      </g>
      <g id="__x003c_Group_x003e__71">
       <path id="__x003c_Path_x003e__72" class="fil0" d="M200.79 247.76c-0.07,10.03 -15.22,10.03 -15.29,0 0.07,-9.96 15.22,-9.96 15.29,0z"/>
      </g>
      <g id="__x003c_Group_x003e__73">
       <path id="__x003c_Path_x003e__74" class="fil0" d="M208.23 207.35c-0.28,16.14 -24.27,16.14 -24.56,0 0.28,-16.21 24.34,-16.21 24.56,0z"/>
      </g>
      <g id="__x003c_Group_x003e__75">
       <path id="__x003c_Path_x003e__76" class="fil0" d="M185.92 294.42c0,14.59 -22.31,14.59 -22.31,0 0.07,-14.66 22.31,-14.66 22.31,0z"/>
      </g>
      <g id="__x003c_Group_x003e__77">
       <path id="__x003c_Path_x003e__78" class="fil0" d="M134 243.9c-0.07,11.3 -17.26,11.3 -17.33,0 0.07,-11.37 17.26,-11.37 17.33,0z"/>
      </g>
      <g id="__x003c_Group_x003e__79">
       <path id="__x003c_Path_x003e__80" class="fil0" d="M133.23 186.58c0.07,7.65 -11.86,7.65 -11.79,0 -0.07,-7.58 11.86,-7.58 11.79,0z"/>
      </g>
      <g id="__x003c_Group_x003e__81">
       <path id="__x003c_Path_x003e__82" class="fil0" d="M239.31 190.51c0.07,4 -6.24,4 -6.17,0 -0.07,-3.93 6.24,-3.93 6.17,0z"/>
      </g>
     </g>
    </g>
    <g id="__x003c_Group_x003e__83">
     <g id="__x003c_Group_x003e__84">
      <g id="__x003c_Group_x003e__85">
       <path id="__x003c_Path_x003e__86" class="fil6" d="M256.07 290.35c-8.63,22.73 -58.79,13.54 -56.76,-10.87 2.81,-16.98 19.08,-50.79 26.52,-68.82 7.86,-5.54 37.25,11.79 36.97,16.84 -2.53,8.91 -25.05,41.46 -28.27,46.65 10.66,0.28 24.06,7.58 21.54,16.21l0 -0z"/>
      </g>
      <g id="__x003c_Group_x003e__87">
       <path id="__x003c_Path_x003e__88" class="fil4" d="M230.47 303.26c-20.21,0.56 -34.94,-14.52 -30.38,-28.41 11.44,2.53 27.22,9.47 30.38,28.41z"/>
      </g>
      <g id="__x003c_Group_x003e__89">
       <path id="__x003c_Path_x003e__90" class="fil4" d="M256.14 240.46c-2.81,4.7 -6.17,10.1 -9.4,15.15l-32.27 -18.66c2.6,-6.1 5.05,-11.86 7.09,-16.42l34.59 19.92z"/>
      </g>
     </g>
     <g id="__x003c_Group_x003e__91">
      <g id="__x003c_Group_x003e__92">
       <path id="__x003c_Path_x003e__93" class="fil6" d="M123.69 269.79c8.63,22.73 58.72,13.54 56.76,-10.87 -2.81,-16.98 -19.08,-50.79 -26.59,-68.82 -7.79,-5.61 -37.18,11.72 -36.9,16.77 2.53,8.91 24.98,41.53 28.27,46.72 -10.66,0.28 -24.06,7.51 -21.54,16.21l0 -0z"/>
      </g>
      <g id="__x003c_Group_x003e__94">
       <path id="__x003c_Path_x003e__95" class="fil4" d="M149.3 282.7c20.21,0.56 34.87,-14.59 30.31,-28.48 -11.44,2.6 -27.15,9.54 -30.31,28.48z"/>
      </g>
      <g id="__x003c_Group_x003e__96">
       <path id="__x003c_Path_x003e__97" class="fil4" d="M123.62 219.91c2.81,4.7 6.17,10.03 9.4,15.08l32.2 -18.59c-2.53,-6.17 -5.05,-11.93 -7.02,-16.49l-34.59 20z"/>
      </g>
     </g>
    </g>
    <g id="__x003c_Group_x003e__98">
     <g id="__x003c_Group_x003e__99">
      <path id="__x003c_Path_x003e__100" class="fil10" d="M239.94 147.23l-125.37 125.37c-6.03,-12.49 -9.33,-26.66 -9.19,-41.39l93.17 -93.24c14.8,-0.14 28.9,3.23 41.39,9.26l-0 0z"/>
     </g>
     <g id="__x003c_Group_x003e__101">
      <path id="__x003c_Path_x003e__102" class="fil10" d="M293.19 227.42l-98.43 98.36c-23.64,-1.12 -45.04,-11.01 -60.97,-26.52l132.88 -132.88c15.5,15.93 25.4,37.32 26.52,61.04l-0 0z"/>
     </g>
    </g>
   </g>
  </g>
 </g>
</svg>
